<svg width="24" height="24" viewBox="0 0 24 24" fill="none" xmlns="http://www.w3.org/2000/svg">
<rect width="24" height="24" fill="white"/>
<rect x="2.80005" y="3" width="1.8" height="0.9" fill="#484848"/>
<rect x="4.6001" y="3" width="1.8" height="0.9" fill="#484848"/>
<rect x="6.3999" y="3" width="1.8" height="0.9" fill="#484848"/>
<rect x="8.19995" y="3" width="1.8" height="0.9" fill="#484848"/>
<rect x="10" y="3" width="1.8" height="0.9" fill="#484848"/>
<rect x="11.8" y="3" width="1.8" height="0.9" fill="#484848"/>
<rect x="13.6001" y="3" width="1.8" height="0.9" fill="#484848"/>
<rect x="15.3999" y="3" width="1.8" height="0.9" fill="#484848"/>
<rect x="17.2" y="3" width="1.8" height="0.9" fill="#484848"/>
<rect x="17.2" y="3.90002" width="1.8" height="0.9" fill="#484848"/>
<rect x="10" y="3.90002" width="1.8" height="0.9" fill="#484848"/>
<rect x="11.8" y="3.90002" width="1.8" height="0.9" fill="#484848"/>
<rect x="13.6001" y="3.90002" width="1.8" height="0.9" fill="#484848"/>
<rect x="15.3999" y="3.90002" width="1.8" height="0.9" fill="#484848"/>
<rect x="8.19995" y="3.90002" width="1.8" height="0.9" fill="#484848"/>
<rect x="6.3999" y="3.90002" width="1.8" height="0.9" fill="#484848"/>
<rect x="4.6001" y="3.90002" width="1.8" height="0.9" fill="#484848"/>
<rect x="2.80005" y="3.90002" width="1.8" height="0.9" fill="#484848"/>
<rect x="1" y="3.90002" width="1.8" height="0.9" fill="#484848"/>
<rect x="1" y="3" width="1.8" height="0.9" fill="#484848"/>
<rect x="1.89999" y="13.9004" width="0.900002" height="0.9" fill="#484848"/>
<rect x="2.80005" y="13.9004" width="0.900002" height="0.9" fill="#484848"/>
<rect x="3.69995" y="13.9004" width="0.900002" height="0.9" fill="#484848"/>
<rect x="4.60001" y="13.9004" width="0.900002" height="0.9" fill="#484848"/>
<rect x="5.5" y="13.9004" width="0.900002" height="0.9" fill="#484848"/>
<rect x="6.40002" y="13.9004" width="0.900002" height="0.9" fill="#484848"/>
<rect x="7.30008" y="13.9004" width="0.900002" height="0.9" fill="#484848"/>
<rect x="8.19995" y="13.9004" width="0.900002" height="0.9" fill="#484848"/>
<rect x="9.10004" y="13.9004" width="0.900002" height="0.9" fill="#484848"/>
<rect x="5.5" y="13" width="0.900002" height="0.9" fill="#484848"/>
<rect x="6.40002" y="13" width="0.900002" height="0.9" fill="#484848"/>
<rect x="7.30008" y="13" width="0.900002" height="0.9" fill="#484848"/>
<rect x="8.19995" y="13" width="0.900002" height="0.9" fill="#484848"/>
<rect x="9.10004" y="13" width="0.900002" height="0.9" fill="#484848"/>
<rect x="4.60001" y="13" width="0.900002" height="0.9" fill="#484848"/>
<rect x="3.69995" y="13" width="0.900002" height="0.9" fill="#484848"/>
<rect x="2.80005" y="13" width="0.900002" height="0.9" fill="#484848"/>
<rect x="1.89999" y="13" width="0.900002" height="0.9" fill="#484848"/>
<rect x="1" y="13" width="0.900002" height="0.9" fill="#484848"/>
<rect x="1" y="13.9004" width="0.900002" height="0.9" fill="#484848"/>
<rect x="1" y="8" width="0.900001" height="0.9" fill="#484848"/>
<rect x="1" y="8.90039" width="0.900001" height="0.9" fill="#484848"/>
<rect x="1.89999" y="8" width="0.900001" height="0.9" fill="#484848"/>
<rect x="2.79999" y="8" width="0.900001" height="0.9" fill="#484848"/>
<rect x="3.69998" y="8" width="0.900001" height="0.9" fill="#484848"/>
<rect x="4.60004" y="8" width="0.900001" height="0.9" fill="#484848"/>
<rect x="5.50003" y="8" width="0.900001" height="0.9" fill="#484848"/>
<rect x="6.40002" y="8" width="0.900001" height="0.9" fill="#484848"/>
<rect x="7.29999" y="8" width="0.900001" height="0.9" fill="#484848"/>
<rect x="8.19998" y="8" width="0.900001" height="0.9" fill="#484848"/>
<rect x="9.09998" y="8" width="0.900001" height="0.9" fill="#484848"/>
<rect x="9.99997" y="8" width="0.900001" height="0.9" fill="#484848"/>
<rect x="10.9" y="8" width="0.900001" height="0.9" fill="#484848"/>
<rect x="11.8" y="8" width="0.900001" height="0.9" fill="#484848"/>
<rect x="12.7" y="8" width="0.900001" height="0.9" fill="#484848"/>
<rect x="13.6" y="8" width="0.900001" height="0.9" fill="#484848"/>
<rect x="14.5" y="8" width="0.900001" height="0.9" fill="#484848"/>
<rect x="15.4" y="8" width="0.900001" height="0.9" fill="#484848"/>
<rect x="16.3" y="8" width="0.900001" height="0.9" fill="#484848"/>
<rect x="17.2" y="8" width="0.900001" height="0.9" fill="#484848"/>
<rect x="18.1" y="8" width="0.900001" height="0.9" fill="#484848"/>
<rect x="14.5" y="8.90039" width="0.900001" height="0.9" fill="#484848"/>
<rect x="15.4" y="8.90039" width="0.900001" height="0.9" fill="#484848"/>
<rect x="16.3" y="8.90039" width="0.900001" height="0.9" fill="#484848"/>
<rect x="17.2" y="8.90039" width="0.900001" height="0.9" fill="#484848"/>
<rect x="18.1" y="8.90039" width="0.900001" height="0.9" fill="#484848"/>
<rect x="13.6" y="8.90039" width="0.900001" height="0.9" fill="#484848"/>
<rect x="12.7" y="8.90039" width="0.900001" height="0.9" fill="#484848"/>
<rect x="11.8" y="8.90039" width="0.900001" height="0.9" fill="#484848"/>
<rect x="10.9" y="8.90039" width="0.900001" height="0.9" fill="#484848"/>
<rect x="9.99997" y="8.90039" width="0.900001" height="0.9" fill="#484848"/>
<rect x="9.09998" y="8.90039" width="0.900001" height="0.9" fill="#484848"/>
<rect x="8.19998" y="8.90039" width="0.900001" height="0.9" fill="#484848"/>
<rect x="7.29999" y="8.90039" width="0.900001" height="0.9" fill="#484848"/>
<rect x="6.40002" y="8.90039" width="0.900001" height="0.9" fill="#484848"/>
<rect x="5.50003" y="8.90039" width="0.900001" height="0.9" fill="#484848"/>
<rect x="4.60004" y="8.90039" width="0.900001" height="0.9" fill="#484848"/>
<rect x="3.69998" y="8.90039" width="0.900001" height="0.9" fill="#484848"/>
<rect x="2.79999" y="8.90039" width="0.900001" height="0.9" fill="#484848"/>
<rect x="1.89999" y="8.90039" width="0.900001" height="0.9" fill="#484848"/>
</svg>
